<?xml version="1.0" standalone="no"?>
<!DOCTYPE svg PUBLIC "-//W3C//DTD SVG 20010904//EN"
 "http://www.w3.org/TR/2001/REC-SVG-20010904/DTD/svg10.dtd">
<svg version="1.0" xmlns="http://www.w3.org/2000/svg"
 width="250.000000pt" height="250.000000pt" viewBox="0 0 250.000000 250.000000"
 preserveAspectRatio="xMidYMid meet">
<metadata>
Created by potrace 1.14, written by Peter Selinger 2001-2017
</metadata>
<g transform="translate(0.000000,250.000000) scale(0.100000,-0.100000)"
fill="#000000" stroke="none">
<path d="M0 1250 l0 -1250 1250 0 1250 0 0 1250 0 1250 -1250 0 -1250 0 0
-1250z m1706 1059 c7 -12 -15 -31 -28 -23 -4 3 -8 12 -8 20 0 17 26 19 36 3z
m-410 -181 c21 -35 62 -91 93 -126 31 -35 63 -73 70 -85 28 -42 -50 36 -106
106 -30 37 -71 76 -93 87 l-38 20 0 82 0 83 18 -52 c10 -29 35 -81 56 -115z
m-327 138 c-8 -8 -272 -96 -276 -93 -4 5 245 94 266 96 8 1 12 -1 10 -3z m141
-283 c-41 -48 -79 -95 -86 -103 -11 -13 -5 -15 42 -16 30 0 60 -6 66 -12 7 -7
18 -12 26 -12 21 0 102 -62 95 -73 -4 -6 3 -8 18 -4 13 3 44 9 69 12 34 4 19
-4 -62 -32 -81 -28 -108 -42 -108 -54 0 -28 -44 -73 -100 -103 -46 -25 -60
-28 -116 -23 -48 3 -73 11 -98 30 -31 25 -34 25 -42 8 -7 -15 -14 -17 -31 -10
-25 9 -32 49 -10 49 8 0 33 24 56 53 72 88 345 387 349 382 3 -2 -28 -44 -68
-92z m-444 -118 c66 -137 63 -166 -4 -35 -33 63 -62 126 -66 140 -7 24 -7 25
10 5 9 -11 36 -60 60 -110z m1189 -295 c4 -6 4 -18 1 -27 -5 -12 -9 -13 -21
-3 -8 7 -15 19 -15 26 0 16 26 19 35 4z m-805 -198 c66 -59 143 -149 114 -134
-35 19 -231 214 -199 198 17 -8 55 -37 85 -64z m-364 -68 c-24 -93 -104 -337
-105 -322 -4 37 119 454 127 430 2 -6 -8 -54 -22 -108z m1282 -132 c-6 -29
-13 -50 -16 -47 -2 2 1 27 8 55 7 28 14 49 16 47 3 -2 -1 -27 -8 -55z m-21
-84 c-3 -8 -6 -5 -6 6 -1 11 2 17 5 13 3 -3 4 -12 1 -19z m-357 -108 c66 -21
125 -49 103 -50 -16 0 -165 54 -189 69 -18 11 -18 12 1 7 11 -3 49 -15 85 -26z
m-624 -41 c-65 -22 -120 -38 -123 -35 -6 6 206 76 227 75 8 -1 -38 -19 -104
-40z m1130 30 c10 -17 -13 -36 -27 -22 -12 12 -4 33 11 33 5 0 12 -5 16 -11z
m-916 -243 c247 -1 289 -4 316 -18 30 -16 33 -16 69 2 39 20 34 19 390 23 147
2 151 1 210 -27 74 -36 217 -177 258 -253 54 -100 46 -206 -19 -263 -35 -30
-46 -32 -85 -16 -9 4 -25 -2 -39 -14 -27 -23 -22 -23 -79 -9 -26 6 -48 6 -55
0 -20 -16 -113 -24 -136 -11 -18 9 -24 9 -34 -5 -11 -15 -16 -16 -36 -5 -36
19 -92 19 -119 -2 -30 -23 -48 -23 -89 2 -31 19 -36 20 -79 5 -25 -9 -53 -13
-63 -10 -10 3 -21 2 -24 -3 -8 -14 -153 -14 -161 -1 -5 7 -12 5 -23 -4 -20
-18 -116 -18 -148 0 -18 10 -24 10 -34 -2 -16 -19 -32 -19 -69 2 -29 17 -33
17 -60 2 -30 -17 -125 -15 -148 3 -7 6 -19 5 -33 -2 -29 -16 -138 -7 -157 13
-15 15 -19 15 -44 0 -26 -16 -31 -16 -62 -1 -25 12 -38 13 -53 5 -23 -13 -83
-10 -101 5 -7 6 -27 8 -44 4 -19 -4 -38 0 -53 9 -18 12 -29 13 -52 5 -39 -15
-169 -6 -199 14 -30 20 -52 61 -61 114 -9 55 16 102 87 164 43 37 62 62 70 91
11 41 84 150 116 172 32 22 53 23 308 18 138 -3 378 -6 535 -7z"/>
<path d="M1280 591 c0 -16 5 -31 11 -33 8 -3 14 -48 17 -126 4 -111 3 -122
-13 -122 -14 0 -16 -7 -13 -40 2 -22 0 -40 -4 -40 -5 0 -8 10 -8 23 0 13 -5
28 -11 34 -6 6 -21 70 -33 142 -16 89 -29 138 -42 152 -17 19 -19 19 -25 2 -7
-17 -8 -17 -8 0 -1 9 -7 17 -15 17 -9 0 -23 -26 -36 -65 -12 -36 -25 -63 -29
-60 -8 4 -64 -126 -57 -132 2 -3 14 22 27 55 14 36 28 59 37 58 9 -1 22 19 33
49 9 28 18 41 18 29 1 -11 -8 -38 -18 -60 -18 -35 -18 -39 -3 -43 9 -2 18 2
20 8 2 6 8 11 14 11 6 0 8 -6 5 -13 -3 -7 1 -35 9 -63 l14 -49 -1 60 c-2 94 2
96 16 10 8 -47 20 -84 29 -91 9 -6 16 -19 16 -28 0 -13 -11 -16 -65 -16 -57 0
-65 2 -65 19 0 10 9 21 21 24 16 4 20 12 17 39 -3 29 -6 33 -33 33 -16 0 -33
-4 -37 -10 -12 -16 -9 -63 4 -67 6 -2 9 -12 5 -21 -7 -20 -66 -23 -99 -6 -19
10 -20 9 -14 -15 9 -37 0 -32 -22 10 -24 48 -11 114 24 114 36 0 55 33 65 111
9 72 5 109 -11 109 -4 0 -11 -17 -14 -37 -14 -82 -18 -93 -32 -93 -12 0 -13
10 -8 51 6 42 4 51 -7 47 -8 -2 -19 -20 -26 -39 -7 -19 -12 -27 -12 -18 -2 35
21 79 40 79 16 0 19 -7 19 -42 0 -51 5 -47 14 10 l6 42 -61 0 c-50 0 -59 -2
-50 -13 7 -9 8 -24 1 -48 -14 -47 -12 -58 5 -29 9 15 14 19 15 10 0 -8 3 -26
6 -40 4 -20 3 -22 -5 -10 -8 12 -11 12 -11 1 0 -11 -3 -11 -16 0 -14 11 -16
10 -13 -6 1 -11 -1 -27 -4 -35 -6 -18 -15 -80 -11 -80 8 0 34 61 34 80 0 11 5
20 11 20 7 0 9 -8 4 -22 -14 -47 -18 -118 -6 -118 6 0 11 -9 11 -20 0 -18 -7
-20 -65 -20 -55 0 -65 3 -66 18 0 14 -2 14 -8 -3 -5 -11 -5 -30 0 -42 5 -13 6
-23 2 -23 -3 0 2 -9 12 -20 19 -21 27 -21 475 -21 353 0 325 -2 358 26 l29 24
39 -19 c54 -28 142 -27 179 2 27 21 28 21 62 3 31 -17 45 -18 205 -7 207 15
218 19 218 93 0 31 -8 65 -21 92 -29 57 -166 193 -201 199 -33 6 -35 -2 -8
-27 11 -10 20 -14 20 -10 0 4 9 0 20 -10 11 -10 20 -15 20 -10 0 4 6 2 14 -5
19 -15 11 -36 -14 -36 -12 0 -19 5 -16 12 3 7 -2 20 -9 31 -8 10 -15 13 -15 6
0 -7 -12 -1 -26 12 -16 15 -39 25 -56 25 -28 0 -29 0 -13 -30 9 -16 13 -30 11
-30 -11 0 -37 63 -32 76 4 10 -4 14 -31 14 -30 0 -34 -2 -23 -15 7 -8 9 -15 6
-15 -4 0 21 -52 54 -115 34 -63 59 -119 55 -125 -3 -5 -1 -10 4 -10 17 0 13
22 -15 78 -23 46 -24 53 -11 67 14 13 20 7 54 -58 35 -64 43 -72 71 -75 29 -3
32 0 32 23 0 24 -35 105 -45 105 -2 0 5 -19 15 -42 22 -47 25 -68 11 -68 -16
0 -112 175 -99 179 7 2 25 -11 40 -30 15 -18 28 -29 28 -25 0 5 7 3 15 -4 11
-9 18 -10 29 -1 19 16 57 -46 64 -104 6 -57 -17 -73 -115 -77 -40 -2 -73 -5
-73 -9 0 -3 6 -11 13 -19 6 -7 -6 0 -27 16 -30 22 -50 51 -84 123 -28 62 -42
102 -38 116 8 31 -23 69 -48 59 -14 -5 -17 -14 -12 -38 l5 -31 -14 30 c-7 17
-16 38 -19 48 -3 11 -15 17 -33 17 -21 0 -24 -3 -15 -12 18 -18 15 -28 -5 -21
-14 5 -13 2 3 -13 34 -30 88 -180 90 -246 1 -43 -2 -55 -13 -51 -7 3 -13 15
-13 27 0 28 -40 148 -68 201 -18 37 -72 97 -72 82 0 -4 9 -21 20 -39 11 -18
20 -37 20 -43 0 -5 -10 8 -23 29 -12 21 -31 45 -43 53 l-21 13 21 -65 c17 -55
23 -65 43 -65 13 0 23 6 24 13 1 23 37 -88 38 -118 3 -104 -144 -112 -190 -11
-26 57 -25 93 1 46 l19 -35 1 36 c0 19 -5 40 -12 47 -7 7 -8 12 -2 12 7 0 5
25 -5 70 -15 67 -32 88 -45 54 -19 -49 17 -222 58 -284 l24 -36 -28 4 c-23 3
-29 10 -34 42 -4 25 -17 47 -38 66 -28 25 -33 36 -33 74 0 51 -33 126 -53 122
-8 -1 -11 2 -8 7 9 15 -11 23 -66 27 -27 3 -58 9 -68 14 -10 6 -28 10 -39 10
-16 0 -21 -6 -21 -29z m30 -12 c0 -5 -4 -9 -10 -9 -5 0 -10 7 -10 16 0 8 5 12
10 9 6 -3 10 -10 10 -16z m117 -11 c6 -7 13 -26 16 -43 l6 -30 -14 33 c-12 26
-21 32 -45 32 -29 0 -30 -2 -30 -45 0 -43 1 -45 29 -45 17 0 33 5 36 10 3 6
-1 10 -10 10 -9 0 -13 5 -9 11 4 7 12 6 23 -5 14 -15 14 -18 1 -26 -22 -14
-80 -12 -80 3 0 9 -3 8 -9 -2 -7 -11 -9 -11 -13 0 -3 8 -2 23 0 33 5 20 5 20
13 0 5 -14 8 -8 8 22 1 22 4 44 8 47 11 12 60 8 70 -5z m-261 -60 c-3 -24 -5
-45 -6 -48 -2 -18 -20 31 -19 55 0 26 2 27 9 10 8 -19 9 -19 9 3 1 12 4 22 7
22 3 0 3 -19 0 -42z m316 -54 c-6 -11 -2 -34 11 -70 21 -58 37 -70 37 -28 0
43 25 21 28 -25 4 -46 -10 -71 -39 -71 -25 0 -59 35 -59 61 0 12 -7 36 -16 55
-13 27 -22 34 -45 34 -27 0 -29 -3 -29 -39 0 -49 8 -71 26 -71 8 0 14 -9 14
-20 0 -18 -7 -20 -60 -20 -52 0 -60 2 -60 19 0 10 7 21 15 25 11 4 15 22 15
76 0 41 4 70 10 70 6 0 8 -10 5 -22 -2 -13 -1 -39 4 -58 l9 -35 3 35 c1 19 2
45 1 58 -1 21 3 23 52 21 54 -2 76 4 76 23 0 6 -7 5 -17 -3 -15 -13 -16 -11
-10 11 4 14 7 32 8 40 0 10 3 8 9 -5 8 -18 9 -16 11 10 2 23 3 20 6 -12 2 -24
0 -50 -5 -59z m148 22 c0 -6 -7 -2 -15 8 -8 11 -15 31 -15 45 1 24 2 24 15 -8
8 -18 15 -38 15 -45z m130 10 c0 -29 -18 -7 -30 35 l-10 34 20 -25 c11 -14 20
-34 20 -44z m289 9 c0 -5 -6 -1 -14 9 -8 11 -15 24 -15 30 0 5 7 1 15 -10 8
-10 14 -23 14 -29z m-149 10 c4 3 23 -30 40 -72 34 -82 55 -113 75 -113 7 0
15 -6 18 -14 6 -15 -31 -26 -85 -26 -31 0 -50 27 -27 40 11 7 9 19 -9 62 -26
63 -27 78 -7 78 9 0 12 6 8 17 -4 11 -8 13 -11 5 -6 -20 -32 6 -32 32 1 19 2
19 11 3 6 -9 14 -15 19 -12z m-280 -65 c0 -5 -4 -10 -10 -10 -5 0 -10 5 -10
10 0 6 5 10 10 10 6 0 10 -4 10 -10z m-183 -87 c3 -10 16 -42 29 -70 26 -61
21 -67 -17 -20 -28 35 -48 107 -29 107 6 0 13 -8 17 -17z"/>
<path d="M1447 433 c-3 -5 6 -28 19 -53 25 -49 33 -30 10 25 -15 35 -21 41
-29 28z"/>
<path d="M1900 444 c0 -10 42 -86 45 -82 9 9 -16 76 -30 82 -8 3 -15 3 -15 0z"/>
<path d="M366 578 c-33 -42 -26 -47 12 -9 17 17 27 33 22 36 -5 3 -20 -9 -34
-27z"/>
<path d="M515 602 c-11 -2 -30 -16 -42 -32 -35 -43 -3 -46 38 -4 35 36 36 42
4 36z"/>
<path d="M515 554 c-33 -30 -98 -87 -144 -127 l-84 -72 37 -7 c42 -9 70 2 86
32 6 11 17 20 26 20 11 0 9 -11 -11 -50 l-25 -50 -58 1 c-31 0 -83 4 -116 8
l-58 7 6 -34 c3 -20 9 -39 14 -44 12 -12 101 -22 325 -39 l168 -12 29 28 c33
32 38 45 15 45 -18 0 -18 8 -4 64 10 39 8 49 -15 98 -28 59 -33 93 -15 104 6
3 10 -1 9 -12 -6 -56 19 -90 82 -109 39 -11 43 -15 41 -41 l-2 -29 13 30 c18
40 51 194 43 202 -11 10 -35 -17 -47 -53 -6 -19 -18 -34 -25 -34 -19 0 -27 33
-16 63 7 18 7 28 0 33 -13 8 -14 7 -32 -38 -9 -21 -23 -38 -31 -38 -10 0 -16
12 -18 38 -4 49 -26 48 -55 -3 -28 -49 -28 -55 -4 -55 14 0 18 -5 14 -20 -3
-13 -14 -20 -28 -20 -17 0 -29 -11 -44 -40 -29 -55 -28 -80 3 -80 25 0 66 41
66 66 0 8 9 14 20 14 25 0 25 -3 1 -65 -22 -58 -31 -61 -149 -50 -68 6 -72 8
-67 28 5 19 4 19 -9 -3 -19 -32 -20 -13 -1 20 19 33 19 65 0 83 -13 13 -12 17
10 31 13 9 28 16 33 16 14 0 83 111 80 130 -2 15 -15 7 -63 -36z m116 -191
c-12 -20 -14 -14 -5 12 4 9 9 14 11 11 3 -2 0 -13 -6 -23z"/>
<path d="M630 585 c0 -8 -4 -15 -10 -15 -5 0 -32 -48 -60 -107 -28 -60 -58
-114 -68 -122 -13 -10 -13 -12 -2 -9 8 2 30 32 48 66 32 60 34 62 75 63 23 1
32 4 19 6 -14 3 -20 9 -15 16 4 7 -1 6 -10 -2 -25 -20 -23 6 3 39 l19 25 -5
-25 c-2 -14 4 -6 16 18 19 42 19 62 -1 62 -5 0 -9 -7 -9 -15z"/>
<path d="M731 563 c0 -25 1 -26 9 -8 12 27 12 35 0 35 -5 0 -10 -12 -9 -27z"/>
<path d="M830 569 c-7 -11 -10 -23 -7 -25 2 -2 9 7 15 21 14 30 7 33 -8 4z"/>
<path d="M391 556 c-13 -14 -33 -26 -45 -28 -24 -3 -34 -37 -15 -49 10 -6 10
-10 0 -23 -8 -9 -10 -16 -6 -16 5 0 0 -10 -11 -22 -13 -15 -5 -12 29 11 49 33
59 53 15 31 -21 -11 -22 -11 -7 4 9 10 30 18 47 18 20 1 39 10 54 27 l23 26
-27 -24 c-31 -28 -52 -21 -21 6 10 10 12 14 3 8 -8 -5 -2 5 14 23 l30 32 -30
0 c-19 0 -39 -9 -53 -24z m19 -30 c0 -3 -4 -8 -10 -11 -5 -3 -10 -1 -10 4 0 6
5 11 10 11 6 0 10 -2 10 -4z"/>
<path d="M1640 550 c0 -46 41 -203 58 -222 8 -10 23 -18 34 -18 14 0 18 7 17
38 0 20 -7 53 -15 72 -8 20 -12 24 -9 10 3 -14 8 -43 10 -65 3 -29 -4 -14 -25
50 -33 97 -38 166 -7 85 10 -28 15 -34 11 -16 -11 58 -32 96 -53 96 -17 0 -21
-6 -21 -30z"/>
<path d="M790 511 c0 -6 4 -13 10 -16 6 -3 7 1 4 9 -7 18 -14 21 -14 7z"/>
<path d="M2210 462 c0 -17 31 -84 37 -79 7 7 -16 75 -28 82 -5 4 -9 2 -9 -3z"/>
<path d="M2067 454 c-6 -6 48 -94 58 -94 7 0 -26 74 -39 88 -7 7 -15 10 -19 6z"/>
<path d="M576 442 c-10 -16 -26 -72 -21 -72 9 0 36 62 32 73 -2 8 -6 7 -11 -1z"/>
<path d="M1757 443 c-2 -4 4 -26 14 -48 l18 -40 1 36 c0 34 -23 70 -33 52z"/>
<path d="M284 418 l-19 -23 23 19 c21 18 27 26 19 26 -2 0 -12 -10 -23 -22z"/>
<path d="M239 383 c-13 -16 -12 -17 4 -4 16 13 21 21 13 21 -2 0 -10 -8 -17
-17z"/>
<path d="M795 320 c-16 -7 -17 -9 -3 -9 9 -1 20 4 23 9 7 11 7 11 -20 0z"/>
</g>
</svg>
